<?xml version="1.0" encoding="utf-8"?>
<!-- Generator: Adobe Illustrator 25.2.1, SVG Export Plug-In . SVG Version: 6.00 Build 0)  -->
<svg version="1.1" id="Layer_1" xmlns="http://www.w3.org/2000/svg" xmlns:xlink="http://www.w3.org/1999/xlink" x="0px" y="0px"
	 viewBox="0 0 300 300" style="enable-background:new 0 0 300 300;" xml:space="preserve">
<style type="text/css">
	.st0{fill:#FFFFFF;}
</style>
<path class="st0" d="M267,150c0-42.6-23.2-81.9-60.6-102.4c-0.5-0.4-1-0.7-1.6-0.9C147.7,16.4,76.9,38.1,46.6,95.2
	C37.7,112.1,33,130.9,33,150c0,0.8,0,1.6,0,2.3c-0.1,0.6-0.1,1.2,0,1.8c2.3,64.6,56.6,115,121.2,112.7c20-0.7,39.5-6.6,56.6-17
	c0.4-0.2,0.8-0.4,1.1-0.7C246.1,227.8,266.9,190.3,267,150z M207.2,238c-15.1-5.3-29.4-12.6-42.5-21.7c-23.4-16-41.7-35.8-49.3-52.8
	c10-3.9,20.6-6.5,31.3-7.5c10.6,16.4,32.5,35,59.4,50.5c7.6,4.4,15.3,8.4,23.3,12C223,226,215.5,232.6,207.2,238z M155.8,255
	c-11-5.7-21.5-12.4-31.2-20.1c-22.4-16.6-39.5-37-45.8-54h0.2c8.2-4.8,16.6-9.1,25.3-12.9c8.4,19.3,28,40.7,53.7,58.3
	c11.1,7.7,23,14.2,35.5,19.4C181.5,251.1,168.8,254.3,155.8,255z M45.2,155.6c12.1-10.5,25.6-19.2,40.1-26
	c25.7-12.3,51.9-18.3,70.3-16.4c-1.6,10.6-4.8,21-9.3,30.7c-19.5,1-46.5,10.6-73.5,26.2c-7.5,4.4-14.8,9.2-21.9,14.3
	C47.7,175.2,45.7,165.5,45.2,155.6z M56.4,102.5c10.4-6.7,21.5-12.4,33-17C114.9,74.5,141,69.8,159,72.9v0.2
	c0,9.5-0.5,18.9-1.6,28.3c-21-2.4-49.2,3.9-77.3,17.4c-12.2,5.8-23.8,12.8-34.6,21C46.8,126.8,50.5,114.2,56.4,102.5z M197.5,56.4
	c3,15.7,3.8,31.8,2.5,47.7c-2.2,28.3-10.1,54-21,69c-8.4-6.7-15.8-14.6-22-23.4c8.8-17.3,14-45.5,14-76.6c0-8.7-0.4-17.5-1.3-26.2
	C179.4,48.7,188.8,51.9,197.5,56.4z M237,208.8c-4.6-2-9.3-4.2-14-6.7c12.5-16,21.8-42,25.1-71.1c0.6-5.1,1.1-9.8,1.4-14.4
	C260,147.6,255.4,181.7,237,208.8z M238,92.7c0.6,12.3,0,24.7-1.8,37c-3.2,27.7-12.2,52.7-24,66.7H212c-8.2-4.7-16.1-9.9-23.7-15.6
	c12.7-17,21.3-44.7,23.7-75.8c1.1-13.5,0.8-27-0.9-40.4C221.7,72.2,230.8,81.8,238,92.7L238,92.7z M150,45c2.5,0,5,0,7.4,0.3
	c0.6,5,1,10.2,1.2,15.4c-20.2-2.8-47.2,2.2-74.1,13.8c-4.7,2-9,3.9-13.1,6C91.3,58,119.9,45,150,45z M55.6,195.9c4-3,8.2-6,12.8-8.8
	c7.7,18.9,25.5,39.8,49,57.3c4.1,3,8,6,11.8,8.5C97.1,246.4,69.9,225.3,55.6,195.9z"/>
</svg>
